<?xml version="1.0" encoding="UTF-8"?>
<svg width="1440px" height="1024px" viewBox="0 0 1440 1024" version="1.1" xmlns="http://www.w3.org/2000/svg" xmlns:xlink="http://www.w3.org/1999/xlink">
    <title>character-6</title>
    <defs>
        <linearGradient x1="111.345864%" y1="99.0046145%" x2="-11.3458638%" y2="99.0046145%" id="linearGradient-1">
            <stop stop-color="#FFD7C2" offset="0%"></stop>
            <stop stop-color="#FFA5A5" offset="100%"></stop>
        </linearGradient>
        <linearGradient x1="111.345864%" y1="99.0046145%" x2="-11.3458638%" y2="99.0046145%" id="linearGradient-2">
            <stop stop-color="#FFD7C2" offset="0%"></stop>
            <stop stop-color="#FFA5A5" offset="100%"></stop>
        </linearGradient>
        <linearGradient x1="110.028259%" y1="-36.9325025%" x2="80.4666988%" y2="152.126621%" id="linearGradient-3">
            <stop stop-color="#AD7DFE" offset="0%"></stop>
            <stop stop-color="#5B62D9" offset="100%"></stop>
        </linearGradient>
        <linearGradient x1="50%" y1="37.6587507%" x2="50%" y2="160.350478%" id="linearGradient-4">
            <stop stop-color="#FFD7C2" offset="0%"></stop>
            <stop stop-color="#FFA5A5" offset="100%"></stop>
        </linearGradient>
        <linearGradient x1="50%" y1="37.6587507%" x2="50%" y2="160.350478%" id="linearGradient-5">
            <stop stop-color="#FFD7C2" offset="0%"></stop>
            <stop stop-color="#FFA5A5" offset="100%"></stop>
        </linearGradient>
        <linearGradient x1="50%" y1="37.6587507%" x2="50%" y2="160.350478%" id="linearGradient-6">
            <stop stop-color="#FFD7C2" offset="0%"></stop>
            <stop stop-color="#FFA5A5" offset="100%"></stop>
        </linearGradient>
        <linearGradient x1="55.8545008%" y1="125.566379%" x2="47.0848155%" y2="30.0285651%" id="linearGradient-7">
            <stop stop-color="#FF9CCC" offset="0%"></stop>
            <stop stop-color="#FF73B7" offset="100%"></stop>
        </linearGradient>
        <linearGradient x1="42.7868578%" y1="10.7304637%" x2="58.3782639%" y2="61.4688316%" id="linearGradient-8">
            <stop stop-color="#FF9CCC" offset="0%"></stop>
            <stop stop-color="#FF73B7" offset="100%"></stop>
        </linearGradient>
        <linearGradient x1="50%" y1="37.6587507%" x2="50%" y2="160.350478%" id="linearGradient-9">
            <stop stop-color="#FFD7C2" offset="0%"></stop>
            <stop stop-color="#FFA5A5" offset="100%"></stop>
        </linearGradient>
        <linearGradient x1="-2.22044605e-14%" y1="49.0341628%" x2="190.494958%" y2="53.0408367%" id="linearGradient-10">
            <stop stop-color="#AD7DFE" offset="0%"></stop>
            <stop stop-color="#5B62D9" offset="100%"></stop>
        </linearGradient>
        <linearGradient x1="24.4455151%" y1="42.8739757%" x2="121.805526%" y2="72.4355362%" id="linearGradient-11">
            <stop stop-color="#AD7DFE" offset="0%"></stop>
            <stop stop-color="#5B62D9" offset="100%"></stop>
        </linearGradient>
        <linearGradient x1="190.494958%" y1="64.288725%" x2="0%" y2="45.4615838%" id="linearGradient-12">
            <stop stop-color="#AD7DFE" offset="0%"></stop>
            <stop stop-color="#5B62D9" offset="100%"></stop>
        </linearGradient>
        <linearGradient x1="50%" y1="0%" x2="50%" y2="100%" id="linearGradient-13">
            <stop stop-color="#FF9CCC" offset="0%"></stop>
            <stop stop-color="#FF73B7" offset="100%"></stop>
        </linearGradient>
        <linearGradient x1="50%" y1="0%" x2="50%" y2="100%" id="linearGradient-14">
            <stop stop-color="#FF9CCC" offset="0%"></stop>
            <stop stop-color="#FF73B7" offset="100%"></stop>
        </linearGradient>
        <linearGradient x1="50%" y1="0%" x2="50%" y2="100%" id="linearGradient-15">
            <stop stop-color="#FF9CCC" offset="0%"></stop>
            <stop stop-color="#FF73B7" offset="100%"></stop>
        </linearGradient>
        <linearGradient x1="32.3978332%" y1="43.4573536%" x2="50%" y2="67.5345229%" id="linearGradient-16">
            <stop stop-color="#FFD7C2" offset="0%"></stop>
            <stop stop-color="#FFA5A5" offset="100%"></stop>
        </linearGradient>
        <linearGradient x1="13.8697995%" y1="42.8739757%" x2="151.52222%" y2="72.4355362%" id="linearGradient-17">
            <stop stop-color="#AD7DFE" offset="0%"></stop>
            <stop stop-color="#5B62D9" offset="100%"></stop>
        </linearGradient>
        <linearGradient x1="38.4923015%" y1="42.8739757%" x2="82.3354725%" y2="72.4355362%" id="linearGradient-18">
            <stop stop-color="#AD7DFE" offset="0%"></stop>
            <stop stop-color="#5B62D9" offset="100%"></stop>
        </linearGradient>
        <linearGradient x1="87.6214681%" y1="-37.5927231%" x2="69.0943724%" y2="152.902235%" id="linearGradient-19">
            <stop stop-color="#AD7DFE" offset="0%"></stop>
            <stop stop-color="#5B62D9" offset="100%"></stop>
        </linearGradient>
        <linearGradient x1="-37.1920714%" y1="50%" x2="14.7352311%" y2="50%" id="linearGradient-20">
            <stop stop-color="#FF9CCC" offset="0%"></stop>
            <stop stop-color="#FF73B7" offset="100%"></stop>
        </linearGradient>
        <linearGradient x1="50%" y1="37.6587507%" x2="50%" y2="160.350478%" id="linearGradient-21">
            <stop stop-color="#FFD7C2" offset="0%"></stop>
            <stop stop-color="#FFA5A5" offset="100%"></stop>
        </linearGradient>
        <linearGradient x1="50%" y1="37.6587507%" x2="50%" y2="160.350478%" id="linearGradient-22">
            <stop stop-color="#FFD7C2" offset="0%"></stop>
            <stop stop-color="#FFA5A5" offset="100%"></stop>
        </linearGradient>
        <linearGradient x1="50%" y1="37.6587507%" x2="50%" y2="160.350478%" id="linearGradient-23">
            <stop stop-color="#FFD7C2" offset="0%"></stop>
            <stop stop-color="#FFA5A5" offset="100%"></stop>
        </linearGradient>
        <linearGradient x1="71.7031275%" y1="72.4355362%" x2="42.2761899%" y2="42.8739757%" id="linearGradient-24">
            <stop stop-color="#AD7DFE" offset="0%"></stop>
            <stop stop-color="#5B62D9" offset="100%"></stop>
        </linearGradient>
        <linearGradient x1="50%" y1="0%" x2="50%" y2="100%" id="linearGradient-25">
            <stop stop-color="#AD7DFE" offset="0%"></stop>
            <stop stop-color="#5B62D9" offset="100%"></stop>
        </linearGradient>
        <linearGradient x1="50%" y1="37.6587507%" x2="50%" y2="160.350478%" id="linearGradient-26">
            <stop stop-color="#FFD7C2" offset="0%"></stop>
            <stop stop-color="#FFA5A5" offset="100%"></stop>
        </linearGradient>
        <linearGradient x1="50%" y1="0%" x2="50%" y2="100%" id="linearGradient-27">
            <stop stop-color="#FF9CCC" offset="0%"></stop>
            <stop stop-color="#FF73B7" offset="100%"></stop>
        </linearGradient>
        <linearGradient x1="50%" y1="0%" x2="50%" y2="100%" id="linearGradient-28">
            <stop stop-color="#FF9CCC" offset="0%"></stop>
            <stop stop-color="#FF73B7" offset="100%"></stop>
        </linearGradient>
        <linearGradient x1="116.961661%" y1="54.0179184%" x2="-34.5638276%" y2="56.7605805%" id="linearGradient-29">
            <stop stop-color="#FFD7C2" offset="0%"></stop>
            <stop stop-color="#FFA5A5" offset="100%"></stop>
        </linearGradient>
        <linearGradient x1="-27.207137%" y1="50%" x2="100%" y2="50%" id="linearGradient-30">
            <stop stop-color="#FF9CCC" offset="0%"></stop>
            <stop stop-color="#FF73B7" offset="100%"></stop>
        </linearGradient>
    </defs>
    <g id="character-6" stroke="none" stroke-width="1" fill="none" fill-rule="evenodd">
        <rect fill="#FAFEFF" x="0" y="0" width="1440" height="1024"></rect>
        <g id="Man-and-girl" transform="translate(440.000000, 218.000000)">
            <path d="M535.258026,264.275766 C517.804758,285.664106 497.621727,311.412415 493.093605,312.949244 C486.71107,315.115454 403.790041,322.524229 373.555919,312.47295 C372.430923,312.098948 362.079241,310.334982 358.314406,304.883098 C355.203617,300.378341 344.65838,296.39823 344.65838,294.691649 C344.65838,293.553928 349.210389,294.360746 358.314406,297.112103 C348.119264,289.972185 343.084571,286.039743 343.210328,285.314777 C343.336084,284.589811 348.644035,286.946966 359.134181,292.38624 C349.775549,283.675537 345.219175,278.834072 345.465057,277.861845 C345.71094,276.889619 350.834879,279.486914 360.836876,285.653732 C351.46264,276.442461 348.098329,272.076414 350.743943,272.555589 C354.712365,273.274352 371.07654,287.581993 374.148568,288.064755 C374.430945,288.10913 376.069676,274.318902 378.118669,276.13007 C380.837446,278.533278 384.184003,296.733129 385.118856,297.112103 C393.332185,300.441655 422.575164,291.876315 443.676796,285.653732 C452.441757,283.069065 461.850651,286.192792 465.094058,283.289782 C472.742855,276.443727 481.050799,262.376601 490.017888,241.088404 C490.906769,238.978167 545.445207,251.791749 535.258026,264.275766 Z" id="Shape" fill="url(#linearGradient-1)" fill-rule="nonzero"></path>
            <path d="M110.534996,229.174137 C99.835461,216.010059 157.116853,202.498462 158.05044,204.723653 C167.46852,227.171516 176.194303,242.004943 184.227789,249.223934 C187.63432,252.285086 197.516424,248.991194 206.72221,251.71666 C228.885128,258.278216 259.598852,267.310149 268.225262,263.799221 C269.207133,263.399602 272.722001,244.208322 275.577516,241.6742 C277.729561,239.76437 279.45071,254.305814 279.74729,254.259022 C282.973822,253.749962 300.161016,238.662918 304.329026,237.905001 C307.107699,237.399722 303.574183,242.003609 293.728479,251.71666 C304.233516,245.213907 309.615159,242.475125 309.873408,243.500313 C310.131657,244.525501 305.346124,249.630703 295.51681,258.815919 C306.534546,253.080342 312.109455,250.594783 312.241537,251.359241 C312.373618,252.123699 307.085711,256.270359 296.377814,263.799221 C305.939709,260.897985 310.720656,260.047216 310.720656,261.246914 C310.720656,263.04646 299.645057,267.243386 296.377814,271.993538 C292.423631,277.742411 281.551321,279.602469 280.369745,279.996845 C248.615029,290.595663 161.523571,282.783298 154.820033,280.499084 C150.064173,278.878537 128.866058,251.727599 110.534996,229.174137 Z" id="Shape" fill="url(#linearGradient-2)" fill-rule="nonzero"></path>
            <path d="M94.8733652,209.217708 C84.7864289,208.64963 104.810265,181.122186 138.414068,165.364504 C151.518203,177.566622 152.51926,197.798157 165.835387,208.227272 C170.935877,212.221947 142.862104,242.801074 136.154067,238.944322 C116.34182,227.553371 106.176687,209.85429 94.8733652,209.217708 Z" id="Shape" fill="url(#linearGradient-3)"></path>
            <path d="M123.448794,115.595072 C119.123701,133.516185 111.112513,143.844715 99.4152314,146.580662 C81.8693084,150.684583 80.1253608,137.835908 65.2583401,146.580662 C55.346993,152.410498 48.1630404,174.608114 43.7064824,213.17351 C38.1949218,256.915713 29.6608735,289.357896 18.1043374,310.500059 C12.662249,320.456115 42.0502897,320.456115 106.268459,310.500059 C125.794191,279.904994 138.165729,257.428539 143.383073,243.070693 C151.20909,221.533926 150.300455,186.338198 143.383073,177.42225 C138.771486,171.478284 135.352505,166.670239 133.126132,162.998116 C137.609867,143.990544 141.028847,134.486758 143.383073,134.486758 C145.737299,134.486758 139.092539,128.189529 123.448794,115.595072 Z" id="Shape" fill="url(#linearGradient-4)" fill-rule="nonzero"></path>
            <path d="M12.2743145,640.317871 L7.00364964,648.582668 L30.8986228,653.390104 C37.9136016,631.76671 41.46837,615.524983 41.5629282,604.664923 C42.5756064,488.358162 18.5720825,621.268019 12.2743145,640.317871 Z" id="Shape" fill="url(#linearGradient-5)" fill-rule="nonzero"></path>
            <path d="M129.478102,648.582668 L155.395471,651.017637 C151.536085,632.850691 149.653672,618.337188 149.74823,607.477128 C150.275855,546.87908 141.897676,549.242546 124.613693,614.567525 L129.478102,648.582668 Z" id="Shape" fill="url(#linearGradient-6)" fill-rule="nonzero"></path>
            <path d="M25.2923352,331.122875 C29.742147,307.448586 57.6918345,298.378038 109.141398,303.911232 C133.949815,373.749482 147.933096,428.136532 151.091241,467.072384 C154.249386,506.008235 154.249386,555.5234 151.091241,615.617879 C138.023028,631.938343 127.174182,633.388999 118.544705,619.969845 C105.600489,599.841114 109.163358,556.553496 99.3153834,538.283951 C89.4674085,520.014405 99.5613677,497.084012 94.1370457,482.523881 C71.3492385,421.356152 22.0826038,348.199578 25.2923352,331.122875 Z" id="Shape" fill="url(#linearGradient-7)"></path>
            <path d="M18.1043374,310.500059 C9.76839417,325.750293 27.6828759,408.724239 30.4308777,473.931607 C31.0850014,489.453319 14.3907138,508.145942 18.1043374,528.560867 C21.8179609,548.975791 2.95578046,601.086902 9.03889717,624.225664 C13.0943083,639.651505 23.860987,641.620319 41.3389333,630.132108 C59.8367355,569.305308 73.6069694,519.889434 82.649635,481.884485 C91.6923006,443.879536 99.5652421,386.751394 106.268459,310.500059 C59.0489141,289.357896 29.6608735,289.357896 18.1043374,310.500059 Z" id="Shape" fill="url(#linearGradient-8)"></path>
            <path d="M124.616353,88.9638656 C127.158509,70.0598038 142.622868,55.5187255 161.320313,55.5187255 C181.793674,55.5187255 200.881956,49.4722643 205.810827,77.4581202 C210.739698,105.443976 170.921445,159.34063 161.320313,155.16279 C141.464993,146.522938 132.06208,133.967858 127.734054,120.63084 C127.63815,120.632535 127.542039,120.633386 127.44573,120.633386 C118.621006,120.633386 111.467153,113.488085 111.467153,104.67391 C111.467153,96.8241018 117.141224,90.2979595 124.616353,88.9638656 L124.616353,88.9638656 Z" id="Path" fill="url(#linearGradient-9)" fill-rule="nonzero"></path>
            <ellipse id="Shape" fill="#423565" fill-rule="nonzero" cx="173.905109" cy="108.336861" rx="2.40145985" ry="2.99823633"></ellipse>
            <ellipse id="Shape" fill="#423565" fill-rule="nonzero" cx="195.518248" cy="105.938272" rx="2.40145985" ry="2.99823633"></ellipse>
            <path d="M179.997868,74.8387284 C183.823356,81.738611 193.951083,85.1885523 210.38105,85.1885523 C235.026001,85.1885523 266.320248,26.8588506 223.045242,6.83303536 C194.195237,-6.51750812 172.933457,3.0493062 159.2599,35.5334783 C151.961311,30.2413051 143.052108,29.6750567 132.532291,33.834733 C122.012474,37.9944093 117.2868,46.9437767 118.355269,60.6828353 C103.356866,62.5978357 95.8576642,68.7675837 95.8576642,79.1920796 C95.8576642,86.0483155 102.209959,94.3260228 108.697893,105.877985 C110.948946,109.886055 114.168072,117.986836 118.355269,130.180329 C122.289646,126.593882 125.520437,123.384408 128.047643,120.551909 C104.425809,104.407626 121.300258,86.449211 127.511303,90.5875035 C134.515366,95.2541688 139.393401,100.834188 142.145407,107.327561 C154.528165,101.805744 159.2012,94.4260747 156.164511,85.1885523 C166.752643,89.9314477 174.697095,86.4815064 179.997868,74.8387284 Z" id="Shape" fill="#423565" fill-rule="nonzero"></path>
            <path d="M4.84224579,642.39729 C1.22670108,650.928689 -0.423454473,667.289752 11.7095349,667.289752 C23.8425243,667.289752 87.2703715,670.231136 80.6797315,664.858226 C76.2859715,661.276287 60.6591889,653.789308 33.7993836,642.39729 C28.9681196,646.911119 24.6247035,648.082794 20.7691353,645.912317 C17.3346137,643.978866 8.4577905,633.86589 4.84224579,642.39729 Z" id="Shape" fill="url(#linearGradient-10)"></path>
            <path d="M124.915238,642.39729 C121.299694,650.928689 119.649538,667.289752 131.782528,667.289752 C143.915517,667.289752 207.343364,670.231136 200.752724,664.858226 C196.358964,661.276287 180.732182,653.789308 153.872376,642.39729 C149.041112,646.911119 144.697696,648.082794 140.842128,645.912317 C137.407606,643.978866 128.530783,633.86589 124.915238,642.39729 Z" id="Shape" fill="url(#linearGradient-10)"></path>
            <path d="M93.1095399,146.224968 C82.4460069,145.700201 77.6610983,137.997521 65.3860294,145.217694 C55.4746822,151.04753 48.4020106,173.784669 44.1680146,213.429111 C36.3105825,258.618434 23.0101702,291.060617 4.26677771,310.755661 C-11.8055997,327.644075 38.1532269,348.457075 74.8750664,349.433597 C102.390007,350.165285 116.584029,332.967382 122.266376,331.852654 C135.532467,329.250196 119.280148,294.397416 122.266376,287.607239 C130.467551,268.959157 140.019915,253.851633 143.844606,243.326295 C151.670622,221.789527 150.761987,186.5938 143.844606,177.677851 C139.233018,171.733885 135.814038,166.925841 133.587664,163.253717 C136.771099,172.869806 132.997337,177.677851 122.266376,177.677851 C106.169935,177.677851 95.3612065,146.335775 93.1095399,146.224968 Z" id="Shape" fill="url(#linearGradient-11)"></path>
            <path d="M257.888928,313.782777 C276.514826,313.28636 294.55185,314.418258 312,317.17847 C329.44815,319.938682 345.922182,324.266264 361.422097,330.161217 L354.317266,374.96573 C351.516321,392.629061 334.90961,404.680119 317.225139,401.882522 L277.733105,395.635076 C260.048634,392.837479 247.983152,376.25062 250.784097,358.58729 L257.888928,313.782777 Z" id="Shape" fill="url(#linearGradient-12)"></path>
            <path d="M272.396344,394.790827 L322.5619,402.726772 C321.441094,409.794802 314.795873,414.617066 307.719384,413.4976 L283.180063,409.615599 C276.103574,408.496133 271.275538,401.858856 272.396344,394.790827 Z" id="Shape" fill="url(#linearGradient-13)"></path>
            <path d="M437.009258,236.073514 C446.76469,174.556059 404.760634,116.790514 343.190051,107.050712 C281.619195,97.3108667 223.797905,139.285556 214.042429,200.803284 C204.286996,262.320738 246.291053,320.086284 307.861636,329.826086 C369.432491,339.565931 427.253782,297.591242 437.009258,236.073514 Z M207.129733,199.708581 C217.490288,134.372812 278.896959,89.7936986 344.285212,100.1378 C409.673749,110.481946 454.283148,171.832739 443.922548,237.168793 C433.561993,302.504561 372.155322,347.083675 306.767069,336.739573 C241.378532,326.395427 196.769134,265.044634 207.129733,199.708581 Z" id="Shape" fill="url(#linearGradient-14)"></path>
            <path d="M380.219339,145.690643 C374.652005,144.809918 370.769516,140.118461 371.547557,135.21198 C372.325597,130.305499 377.469539,127.041979 383.036872,127.922704 C388.604206,128.803429 392.486695,133.494886 391.708655,138.401367 C390.930614,143.307848 385.786673,146.571368 380.219339,145.690643 Z" id="Shape" fill="#DDEBFF"></path>
            <path d="M291.737537,255.895908 C295.419288,256.478343 300.357903,254.083455 305.266963,249.821332 C304.855232,246.570068 304.909429,242.981539 305.434268,239.272779 C307.017983,228.08149 312.366653,219.697506 319.198438,220.778261 C323.267033,221.421893 324.620454,225.116014 323.417032,230.003999 C322.469208,233.853812 319.961173,238.643743 316.503351,243.362529 C314.314993,246.348916 311.951984,249.072598 309.517741,251.420709 C310.44855,255.484696 312.344842,258.491647 315.059409,259.636446 C318.000338,260.876708 322.415667,259.069508 327.010555,255.23711 C326.107109,251.64751 325.861004,247.536129 326.306217,243.226762 C327.494163,231.728218 333.225628,222.997294 340.828779,224.200075 C345.221841,224.895036 346.840703,228.731255 345.741281,233.936725 C344.87191,238.052965 342.333576,243.162144 338.787411,248.14585 C336.524842,251.325618 334.091263,254.178702 331.606684,256.571429 C333.018117,259.999245 335.297835,262.428124 338.311102,263.275568 C341.244736,264.100616 344.884112,263.01848 348.590266,260.575997 C349.271536,253.899401 349.867762,249.712413 350.721942,245.133011 C352.915759,233.371584 356.057779,227.225738 361.463103,227.474997 C366.519394,227.70816 369.187366,231.037612 368.936458,236.20326 C368.736267,240.324749 366.680745,245.509775 363.367183,250.663522 C360.133069,255.693701 356.2472,260.003268 352.214602,263.049962 C351.731496,268.013642 351.189548,274.321461 350.475507,282.929872 C350.075896,287.747554 349.804747,290.926316 349.510393,294.18336 C348.23681,308.275593 346.946742,315.017401 345.174463,323.962428 C344.942695,325.132203 343.911005,325.904919 342.870118,325.688338 C341.829231,325.471756 341.17331,324.347893 341.405077,323.178118 C343.136807,314.437748 344.408809,307.840742 345.668291,293.90453 C345.961328,290.662075 346.231622,287.493322 346.630327,282.686569 C347.211725,275.677286 347.679889,270.181052 348.095859,265.684969 C344.323558,267.658393 340.571767,268.39202 337.241386,267.455392 C333.266858,266.337605 330.308487,263.396129 328.441298,259.345963 C323.102888,263.563748 317.76298,265.436806 313.581341,263.673306 C310.020195,262.171483 307.557297,258.790951 306.210252,254.342111 C300.9414,258.571702 295.560038,260.873556 291.06107,260.161842 C290.506209,260.074065 289.969858,259.944421 289.452457,259.775318 C288.30135,262.707532 287.307319,265.238201 286.977409,266.086576 C283.585951,274.807816 281.042604,281.71077 278.805988,288.434431 C275.792868,297.492399 273.580022,305.567251 272.185008,312.918998 C271.962677,314.090687 270.936969,314.873549 269.894026,314.667571 C268.851082,314.461593 268.185845,313.344773 268.408176,312.173085 C269.847988,304.585253 272.115428,296.311181 275.191223,287.064801 C277.457218,280.252822 280.025596,273.281931 283.443297,264.493206 C283.786667,263.610219 284.836078,260.938799 286.033949,257.887357 C281.355741,254.060594 279.125282,246.121488 279.938504,237.325953 C281.025646,225.567778 287.145975,216.686523 296.024052,217.122295 C299.026284,217.269657 300.751841,219.411818 300.974612,222.849827 C301.143387,225.45452 300.508838,228.936303 299.132915,233.570612 C297.989307,237.42245 296.357711,242.009929 293.944866,248.287631 C293.417959,249.658528 292.262165,252.612838 291.033999,255.74486 C291.264139,255.807639 291.498698,255.858125 291.737537,255.895908 Z M360.256766,248.236874 C363.164731,243.71397 364.927835,239.266567 365.080433,236.124898 C365.218244,233.287663 364.11883,231.915666 361.165129,231.779461 C358.615434,231.661886 356.309238,236.172845 354.501565,245.864087 C353.843924,249.389811 353.340649,252.706117 352.825486,257.217115 C355.475769,254.757283 358.03346,251.694892 360.256766,248.236874 Z M335.796359,245.542788 C339.004826,241.033677 341.269832,236.474654 341.984081,233.092873 C342.620305,230.080523 342.066796,228.76887 340.152312,228.466009 C335.372921,227.709932 331.10966,234.204293 330.142339,243.56733 C329.826358,246.625826 329.908662,249.524279 330.355682,252.11755 C332.219698,250.194584 334.061863,247.980413 335.796359,245.542788 Z M313.54896,240.708698 C316.680049,236.435795 318.918188,232.16132 319.695689,229.003315 C320.358522,226.311062 319.978813,225.27466 318.521972,225.044195 C314.537275,224.413835 310.537568,230.683333 309.24825,239.79427 C308.925928,242.071955 308.807699,244.274466 308.881564,246.336178 C310.492273,244.624693 312.064115,242.735022 313.54896,240.708698 Z M290.403994,246.711746 C292.775578,240.541399 294.371356,236.054626 295.471226,232.350103 C297.789454,224.541975 297.593539,221.518438 295.715883,221.426275 C289.359046,221.114255 284.677147,227.908195 283.779695,237.614738 C283.140679,244.526124 284.667207,250.551335 287.682802,253.684907 C288.840328,250.732398 289.906527,248.006045 290.403994,246.711746 Z" id="Shape" fill="url(#linearGradient-15)"></path>
            <path d="M394.130862,156.037614 C391.533193,153.480424 391.502859,149.304102 394.063109,146.709537 C396.62336,144.114973 400.804681,144.084675 403.402351,146.641865 C420.730551,163.700039 430.553909,185.511316 432.826076,211.787206 C433.139925,215.41663 430.448599,218.61298 426.814831,218.926454 C423.181062,219.239928 419.980887,216.551819 419.667038,212.922394 C417.658941,189.700278 409.162332,170.834848 394.130862,156.037614 Z" id="Shape" fill="#DDEBFF"></path>
            <path d="M75.7138278,233.971316 C65.0142931,220.807237 122.295686,207.295641 123.229272,209.520831 C132.647352,231.968694 141.373135,246.802121 149.406621,254.021113 C152.813152,257.082264 162.695257,253.788372 171.901042,256.513838 C194.06396,263.075394 224.777684,272.107327 233.404094,268.596399 C234.385965,268.196781 237.900834,249.0055 240.756348,246.471378 C242.908394,244.561548 244.629543,259.102993 244.926122,259.0562 C248.152654,258.54714 265.339848,243.460097 269.507858,242.702179 C272.286531,242.196901 268.753015,246.800787 258.907311,256.513838 C269.412348,250.011085 274.793991,247.272303 275.05224,248.297491 C275.310489,249.32268 270.524956,254.427881 260.695642,263.613097 C271.713378,257.87752 277.288288,255.391961 277.420369,256.156419 C277.55245,256.920877 272.264543,261.067537 261.556646,268.596399 C271.118541,265.695163 275.899488,264.844394 275.899488,266.044092 C275.899488,267.843638 264.823889,272.040564 261.556646,276.790716 C257.602463,282.539589 246.730153,284.399647 245.548578,284.794023 C213.793861,295.392841 126.702403,287.580476 119.998865,285.296262 C115.243006,283.675715 94.0448898,256.524777 75.7138278,233.971316 Z" id="Shape" fill="url(#linearGradient-16)" fill-rule="nonzero"></path>
            <ellipse id="Shape" fill="#423565" fill-rule="nonzero" cx="199.720803" cy="96.9435626" rx="6.6040146" ry="2.39858907"></ellipse>
            <ellipse id="Shape" fill="#423565" fill-rule="nonzero" cx="170.903285" cy="96.9435626" rx="6.6040146" ry="2.39858907"></ellipse>
            <path d="M187.568972,99.9992142 C187.537248,99.6695575 187.77909,99.3766311 188.109141,99.3449448 C188.439192,99.3132584 188.732469,99.5548111 188.764193,99.8844678 C189.642033,109.00637 190.806207,114.745617 192.203441,117.009033 C193.126975,118.505093 192.733406,119.776593 191.128179,120.453058 C189.761906,121.028825 187.429703,121.24128 184.089112,121.117759 C183.757766,121.105507 183.499101,120.827288 183.511368,120.496339 C183.523634,120.165389 183.802187,119.907034 184.133532,119.919286 C187.310545,120.036758 189.500659,119.837246 190.661414,119.348088 C191.583215,118.959628 191.721385,118.513244 191.181372,117.638461 C189.651508,115.160192 188.465133,109.3115 187.568972,99.9992142 Z" id="Shape" fill="#EF6949" fill-rule="nonzero"></path>
            <path d="M132.516325,176.097002 C118.436052,168.549586 110.453686,161.497492 108.569227,154.940721 C106.684767,148.38395 106.226933,144.582834 107.195726,143.537372 C99.2429577,143.405337 94.5936342,144.29098 93.2477551,146.194301 C89.8400644,151.013404 99.2947838,165.787323 121.611913,190.51606 L126.296163,177.338282 L132.516325,176.097002 Z" id="Shape" fill="url(#linearGradient-17)"></path>
            <path d="M133.080292,174.162743 C134.398556,170.85958 134.398556,167.154419 133.080292,163.047261 C133.080292,162.043436 133.440063,160.63645 134.159606,158.826305 C138.807424,162.094965 141.687041,165.85304 142.798458,170.100529 C143.909876,174.348018 145.062492,179.744843 146.256308,186.291005 L137.233259,170.100529 L133.080292,174.162743 Z" id="Shape" fill="url(#linearGradient-18)"></path>
            <path d="M169.105871,122.794278 C169.06947,122.465104 169.307129,122.168782 169.636698,122.132425 C169.966266,122.096067 170.262942,122.333442 170.299343,122.662617 C170.767637,126.897411 172.52333,128.897891 175.643406,128.897891 C175.974978,128.897891 176.243771,129.166362 176.243771,129.497538 C176.243771,129.828714 175.974978,130.097185 175.643406,130.097185 C171.840473,130.097185 169.635633,127.584938 169.105871,122.794278 Z" id="Shape" fill="#EF6949" fill-rule="nonzero"></path>
            <path d="M119.856769,106.735811 C119.781607,107.058366 119.458881,107.258991 119.135939,107.183919 C118.812998,107.108847 118.612133,106.786507 118.687295,106.463952 C120.204068,99.9547526 122.455161,97.1171114 125.525835,98.4745281 C128.266817,99.686202 131.31634,103.87345 134.784269,111.066206 C134.92813,111.364586 134.802579,111.722955 134.503841,111.866644 C134.205104,112.010334 133.846306,111.884932 133.702444,111.586552 C130.354735,104.643139 127.430591,100.628047 125.039875,99.5712119 C122.978851,98.6601191 121.222729,100.873819 119.856769,106.735811 Z" id="Shape" fill="#EF6949" fill-rule="nonzero"></path>
            <path d="M85.7586431,150.827123 C90.9486066,167.261829 131.208095,211.218514 130.769046,219.15491 C130.329997,227.091306 81.5287661,262.367047 75.441889,245.642901 C69.355012,228.918755 55.3953244,209.658432 49.5134426,199.816521 C46.0166594,193.965498 47.3424702,164.011274 58.5145849,150.789972 C66.1349017,141.771938 84.0210249,145.324726 85.7586431,150.827123 Z" id="Shape" fill="url(#linearGradient-19)"></path>
            <path d="M130.306701,104.216292 C130.636652,104.249007 130.877577,104.542687 130.844822,104.872243 C130.812068,105.201799 130.518037,105.442436 130.188087,105.40972 C126.761035,105.06992 125.554194,105.789902 125.962699,107.585585 C126.036167,107.908529 125.833613,108.229813 125.510282,108.303193 C125.186951,108.376573 124.865283,108.174261 124.791815,107.851317 C124.14884,105.024969 126.188757,103.807988 130.306701,104.216292 Z" id="Shape" fill="#EF6949" fill-rule="nonzero"></path>
            <path d="M231.081757,58.982595 C237.139567,55.0805611 238.647493,48.0566672 235.172802,41.4555362 C235.018504,41.162404 235.131335,40.7998394 235.424818,40.6457255 C235.718301,40.4916116 236.0813,40.6043082 236.235598,40.8974403 C239.989222,48.0284822 238.334058,55.7382104 231.732521,59.9904765 C229.369546,61.5125463 225.232756,63.1667512 220.934856,64.3657484 C222.925778,67.1094133 223.481489,69.8960041 221.833115,71.8949011 C218.177103,76.3283567 210.774869,77.9057565 199.657279,76.7232644 C199.327571,76.6881959 199.088752,76.3928055 199.123863,76.0634914 C199.158973,75.7341773 199.454717,75.4956441 199.784426,75.5307126 C210.540928,76.6747987 217.571261,75.1766501 220.906293,71.1324311 C222.187075,69.5792944 221.576388,67.1557877 219.675282,64.7027591 C217.887843,65.1604761 216.099725,65.5302199 214.42564,65.7702122 C210.921441,66.2725649 208.032708,66.2146746 206.030882,65.503349 C203.621695,64.6472723 202.518178,62.8406998 203.031711,60.2097188 C203.542902,57.5907389 205.350126,56.3173316 207.967251,56.4272686 C210.175082,56.5200125 212.897908,57.6013083 215.515134,59.3449659 C217.340815,60.5612769 218.913378,61.9329412 220.125488,63.3440025 C224.484915,62.1669617 228.736864,60.493017 231.081757,58.982595 Z M214.848844,60.3426761 C212.39913,58.7106188 209.873682,57.7077064 207.916796,57.6255039 C205.867301,57.5394112 204.602273,58.430776 204.210253,60.4392053 C203.813413,62.4723372 204.570282,63.7114119 206.433347,64.3734303 C208.213138,65.0058584 210.926627,65.0602367 214.255049,64.5830831 C215.710215,64.3744743 217.256198,64.0643793 218.811474,63.6827157 C217.742232,62.5194754 216.399782,61.3759471 214.848844,60.3426761 Z" id="Shape" fill="#FFFFFF" fill-rule="nonzero"></path>
            <path d="" id="Shape" fill-rule="nonzero"></path>
            <path d="" id="Shape" fill-rule="nonzero"></path>
            <polygon id="Shape" fill="#EF6949" fill-rule="nonzero" points="130.03628 126.028948 133.784694 151.33974 142.752621 143.35736"></polygon>
            <path d="M442.779982,123.340571 C429.377924,104.250623 430.273446,74.9178662 459.351716,80.7770011 C478.737229,84.6830911 496.374235,87.1946461 512.262735,88.3116663 C511.636634,81.9863227 514.981267,78.3624482 522.296633,77.4400427 C533.269683,76.0564344 565.05575,91.3900121 549.990932,98.2842458 C539.94772,102.880402 530.716287,102.784648 522.296633,97.9969857 C538.940651,127.009672 552.172647,143.372095 561.992623,147.084253 C576.722586,152.65249 585.411366,141.958405 592.893489,150.860723 C597.881571,156.795602 603.100453,164.588203 608.550134,174.238527 C635.511512,173.637134 645.902119,179.499159 639.721956,191.824604 C630.451712,210.312772 597.596904,240.601651 584.827076,241.382524 C572.057247,242.163398 487.649858,243.204549 477.476247,227.522674 C470.693841,217.068091 476.212593,206.877365 494.032505,196.950495 C488.806799,196.717319 486.922701,192.628705 488.38021,184.684653 C489.837718,176.740602 482.298906,170.520339 465.763773,166.023865 C459.375951,150.294968 451.714687,136.067204 442.779982,123.340571 Z" id="Shape" fill="#423565" fill-rule="nonzero"></path>
            <path d="M475.003813,101.561266 C474.970005,101.287201 475.164772,101.037621 475.438837,101.003813 C475.712902,100.970005 475.962483,101.164772 475.99629,101.438837 C476.926475,108.979449 479.775178,114.436575 484.536528,117.8466 C489.35443,121.297127 499.275344,124.921657 514.265709,128.691339 C514.533514,128.758685 514.696017,129.030378 514.628672,129.298182 C514.561326,129.565987 514.289633,129.72849 514.021829,129.661145 C498.915657,125.86234 488.904322,122.204775 483.954266,118.659601 C478.947657,115.073925 475.966129,109.362352 475.003813,101.561266 Z" id="Shape" fill="#FAFEFF" fill-rule="nonzero"></path>
            <path d="M549.635433,245.660963 C538.842843,246.270356 529.137013,263.21349 510.219967,274.117921 C503.815027,277.809947 477.009746,248.536888 481.879774,244.71283 C494.594223,234.729153 493.632211,212.607597 513.020233,201.451348 C545.105674,216.536003 559.266599,245.117148 549.635433,245.660963 Z" id="Shape" fill="url(#linearGradient-20)"></path>
            <path d="M522.296673,156.908289 C526.405444,173.900908 534.015947,183.694316 545.128183,186.288514 C561.796537,190.179811 563.45326,177.996826 577.576699,186.288514 C586.992324,191.816306 593.816968,212.863863 598.050628,249.431184 C603.286525,290.907101 508.315813,291.393357 503.359417,277.779393 C497.762306,262.405545 501.631483,229.44796 505.862301,213.112883 C507.251242,207.75022 510.71221,204.69201 511.204562,203.957998 C511.93608,202.867429 512.535291,202.790554 513.103352,201.855379 C508.843873,183.83259 505.595895,174.821196 503.359417,174.821196 C501.122939,174.821196 507.435358,168.850227 522.296673,156.908289 Z" id="Shape" fill="url(#linearGradient-21)" fill-rule="nonzero"></path>
            <path d="M627.644031,655.385757 L632.583942,663.239452 L610.18847,667.80776 C603.613708,647.259942 600.282015,631.826099 600.193391,621.506232 C599.244262,510.984718 621.741472,637.283469 627.644031,655.385757 Z" id="Shape" fill="url(#linearGradient-22)" fill-rule="nonzero"></path>
            <path d="M521.164979,661.90133 L496.90146,664.209877 C500.514568,646.986144 497.473941,633.226171 497.385417,622.929956 C496.891461,565.478111 504.735008,567.718867 520.916058,629.652226 L521.164979,661.90133 Z" id="Shape" fill="url(#linearGradient-23)" fill-rule="nonzero"></path>
            <path d="M608.426571,361.769771 C611.490154,378.005156 562.742873,465.179698 534.399046,503.804005 C529.301017,510.75112 535.187602,614.347271 529.301017,636.047224 C525.064073,651.666035 508.033209,654.960731 495.560029,639.444327 C492.545684,582.310522 482.230439,525.315771 485.244785,488.298172 C488.259131,451.280573 504.716578,402.296293 528.395396,335.898764 C577.502314,330.638174 604.179372,339.261843 608.426571,361.769771 Z" id="Shape" fill="url(#linearGradient-24)"></path>
            <path d="M632.426406,346.552423 C640.356662,361.062656 612.487326,435.753269 609.873061,497.796523 C609.250772,512.56506 619.156771,605.052533 627.781022,635.876048 C631.753318,650.073239 616.123214,657.348325 599.495869,646.417566 C581.898302,588.54232 568.798226,541.524296 560.195641,505.363496 C551.593056,469.202695 544.103268,414.846633 537.726277,342.29531 C582.647783,322.179047 621.432293,326.43616 632.426406,346.552423 Z" id="Shape" fill="url(#linearGradient-25)"></path>
            <path d="M534.084139,147.024292 C534.084139,155.445219 527.285818,162.27173 518.899664,162.27173 C518.808141,162.27173 518.716807,162.270916 518.62567,162.269297 C514.512737,175.01128 505.57713,187.006209 486.708578,195.260591 C477.584603,199.252036 440.9984,153.351938 445.682316,126.614682 C451.009403,129.389908 459.393096,123.896949 470.833396,110.135802 C471.696657,117.431721 474.750801,122.924681 479.995829,126.614682 C487.86337,132.149684 489.980828,125.886176 494.153968,129.380972 C505.263657,138.68478 504.58895,148.419204 506.094044,149.156676 C509.899557,151.021319 508.675987,137.407814 521.588427,132.015157 C528.692057,133.28973 534.084139,139.524706 534.084139,147.024292 Z" id="Shape" fill="url(#linearGradient-26)" fill-rule="nonzero"></path>
            <ellipse id="Shape" fill="#423565" fill-rule="nonzero" transform="translate(471.686131, 145.514991) scale(-1, 1) translate(-471.686131, -145.514991) " cx="471.686131" cy="145.514991" rx="2.40145985" ry="2.99823633"></ellipse>
            <ellipse id="Shape" fill="#423565" fill-rule="nonzero" transform="translate(451.273723, 144.315697) scale(-1, 1) translate(-451.273723, -144.315697) " cx="451.273723" cy="144.315697" rx="2.40145985" ry="2.99823633"></ellipse>
            <path d="M633.69558,656.616559 C637.104494,664.712192 638.660341,680.237566 627.220763,680.237566 C615.781184,680.237566 555.978293,683.02871 562.192273,677.930237 C566.334925,674.531256 581.068624,667.426696 606.393368,656.616559 C610.948521,660.899831 615.043707,662.01166 618.678926,659.952045 C621.917162,658.117351 630.286667,648.520925 633.69558,656.616559 Z" id="Shape" fill="url(#linearGradient-27)"></path>
            <path d="M526.830617,656.616559 C530.23953,664.712192 531.795378,680.237566 520.355799,680.237566 C508.916221,680.237566 449.11333,683.02871 455.327309,677.930237 C459.469962,674.531256 474.20366,667.426696 499.528405,656.616559 C504.083558,660.899831 508.178744,662.01166 511.813963,659.952045 C515.052199,658.117351 523.421704,648.520925 526.830617,656.616559 Z" id="Shape" fill="url(#linearGradient-27)"></path>
            <path d="M550.405943,185.966711 C560.545558,185.468412 565.095376,178.154234 576.76735,185.010242 C586.191736,190.546037 609.557095,205.469931 605.018033,250.580663 C600.478972,295.691395 615.86048,311.50431 633.682978,330.205991 C648.328183,345.573643 615.330154,371.28019 581.96674,372.510278 C554.427692,373.525626 527.184875,351.356344 521.480903,350.238911 C508.866598,347.767713 528.80592,324.655869 525.966411,318.20817 C518.168174,300.500645 487.064811,271.590026 489.46959,260.835228 C492.857116,245.685328 498.021752,234.996412 500.233705,224.190385 C501.95459,215.783366 505.922511,210.294655 507.374057,206.047595 C508.403007,203.037003 512.476858,203.093568 512.978043,202.268062 C509.951016,211.399143 499.196537,221.864688 514.526394,221.864688 C545.323184,221.864688 548.264905,186.07193 550.405943,185.966711 Z" id="Shape" fill="url(#linearGradient-28)"></path>
            <path d="M574.882114,254.825674 C557.428846,276.214015 537.245815,301.962323 532.717692,303.499153 C526.335158,305.665363 454.220698,313.074138 423.986576,303.022859 C422.86158,302.648857 412.509897,300.88489 408.745063,295.433006 C405.634274,290.92825 395.089037,286.948138 395.089037,285.241557 C395.089037,284.103837 399.641046,284.910655 408.745063,287.662012 C398.549921,280.522094 393.515228,276.589652 393.640985,275.864686 C393.766741,275.13972 399.074692,277.496875 409.564838,282.936149 C400.206206,274.225445 395.649832,269.38398 395.895714,268.411754 C396.141597,267.439527 401.265536,270.036823 411.267533,276.203641 C401.893297,266.99237 398.528986,262.626322 401.1746,263.105498 C405.143022,263.824261 421.507196,278.131902 424.579225,278.614663 C424.861602,278.659038 426.500333,264.868811 428.549326,266.679978 C431.268103,269.083187 434.61466,287.283037 435.549513,287.662012 C443.762842,290.991564 473.00582,282.426224 494.107453,276.203641 C502.872414,273.618974 503.099584,279.106651 506.342991,276.203641 C513.991789,269.357586 527.152138,257.685196 536.119228,236.396999 C537.008109,234.286763 585.069294,242.341658 574.882114,254.825674 Z" id="Shape" fill="url(#linearGradient-29)" fill-rule="nonzero"></path>
            <ellipse id="Shape" fill="#423565" fill-rule="nonzero" transform="translate(453.675182, 135.320988) scale(-1, 1) translate(-453.675182, -135.320988) " cx="453.675182" cy="135.320988" rx="6.00364964" ry="2.39858907"></ellipse>
            <ellipse id="Shape" fill="#423565" fill-rule="nonzero" transform="translate(475.288321, 134.121693) scale(-1, 1) translate(-475.288321, -134.121693) " cx="475.288321" cy="134.121693" rx="6.00364964" ry="2.39858907"></ellipse>
            <path d="M464.369597,145.529581 C463.549332,154.234914 462.463433,159.702401 461.063135,162.019143 C460.568855,162.83691 460.695324,163.2542 461.539057,163.617341 C462.601506,164.074617 464.606137,164.261124 467.514086,164.151309 C467.817369,164.139856 468.072331,164.381372 468.083558,164.690751 C468.094786,165.00013 467.858028,165.260216 467.554744,165.271669 C464.497071,165.387139 462.362385,165.188531 461.111823,164.650291 C459.642544,164.017916 459.282306,162.82929 460.127626,161.43074 C461.406526,159.314847 462.472105,153.949672 463.2756,145.422313 C463.304637,145.114143 463.573076,144.888334 463.875175,144.917955 C464.177274,144.947576 464.398634,145.22141 464.369597,145.529581 Z" id="Shape" fill="#EF6949" fill-rule="nonzero"></path>
            <path d="M478.886797,163.505758 C478.352377,167.831885 476.128149,170.100529 472.291776,170.100529 C471.957288,170.100529 471.686131,169.858091 471.686131,169.559027 C471.686131,169.259964 471.957288,169.017526 472.291776,169.017526 C475.439287,169.017526 477.210419,167.211025 477.68283,163.386863 C477.719551,163.089608 478.018837,162.87525 478.351303,162.908082 C478.683769,162.940914 478.923518,163.208503 478.886797,163.505758 Z" id="Shape" fill="#EF6949" fill-rule="nonzero"></path>
            <path d="M526.976451,148.34263 C525.65803,142.732016 523.963025,140.613246 521.97373,141.485269 C519.666217,142.496784 516.843841,146.339697 513.61264,152.985357 C513.473785,153.270942 513.127475,153.390966 512.839134,153.253438 C512.550793,153.11591 512.429611,152.77291 512.568466,152.487325 C515.915702,145.603015 518.859094,141.595328 521.504683,140.435614 C524.468489,139.136407 526.641239,141.852362 528.105224,148.082428 C528.17777,148.391151 527.983896,148.699669 527.672194,148.771521 C527.360492,148.843374 527.048997,148.651353 526.976451,148.34263 Z" id="Shape" fill="#EF6949" fill-rule="nonzero"></path>
            <path d="M557.906526,190.957423 C559.566175,185.731435 576.649719,182.357119 583.9281,190.922137 C594.598903,203.479275 595.865223,231.928765 592.525346,237.485866 C586.907394,246.833374 584.835558,257.598104 583.9281,271.299328 C583.020641,285.000552 531.50291,253.679662 531.083562,246.141946 C530.664214,238.604231 552.949445,206.56654 557.906526,190.957423 Z" id="Shape" fill="url(#linearGradient-30)"></path>
            <path d="M515.438698,146.1809 C519.443917,145.829365 521.427992,146.877142 520.802618,149.310527 C520.731162,149.588571 520.418299,149.762754 520.103819,149.699577 C519.789339,149.636399 519.59233,149.359785 519.663786,149.081741 C520.061109,147.535722 518.887305,146.915844 515.554066,147.2084 C515.233148,147.236566 514.947166,147.029386 514.915308,146.74565 C514.88345,146.461914 515.11778,146.209067 515.438698,146.1809 Z" id="Shape" fill="#EF6949" fill-rule="nonzero"></path>
            <path d="" id="Shape" fill-rule="nonzero"></path>
            <path d="" id="Shape" fill-rule="nonzero"></path>
            <polygon id="Shape" fill="#EF6949" fill-rule="nonzero" points="516.113139 167.70194 512.573729 191.687831 504.105839 184.123291"></polygon>
        </g>
    </g>
</svg>